<svg width="29" height="26" viewBox="0 0 29 26" fill="none" xmlns="http://www.w3.org/2000/svg">
<g id="mdi_search" clip-path="url(#clip0_4_219)">
<path id="Vector" d="M18.7292 15.1667H17.7746L17.4362 14.8742C18.6204 13.6392 19.3333 12.0358 19.3333 10.2917C19.3333 6.4025 15.8171 3.25 11.4792 3.25C7.14125 3.25 3.625 6.4025 3.625 10.2917C3.625 14.1808 7.14125 17.3333 11.4792 17.3333C13.4246 17.3333 15.2129 16.6942 16.5904 15.6325L16.9167 15.9358V16.7917L22.9583 22.1975L24.7587 20.5833L18.7292 15.1667ZM11.4792 15.1667C8.47042 15.1667 6.04167 12.9892 6.04167 10.2917C6.04167 7.59417 8.47042 5.41667 11.4792 5.41667C14.4879 5.41667 16.9167 7.59417 16.9167 10.2917C16.9167 12.9892 14.4879 15.1667 11.4792 15.1667Z" fill="#1A2A59"/>
</g>
<defs>
<clipPath id="clip0_4_219">
<rect width="29" height="26" fill="white"/>
</clipPath>
</defs>
</svg>
