<svg width="24" height="21" viewBox="0 0 24 21" fill="none" xmlns="http://www.w3.org/2000/svg">
<path id="Vector" d="M21 2.33333H17.3017L15.1667 0H8.16667L6.03167 2.33333H2.33333C1.71449 2.33333 1.121 2.57917 0.683417 3.01675C0.245833 3.45434 0 4.04783 0 4.66667V18.6667C0 19.2855 0.245833 19.879 0.683417 20.3166C1.121 20.7542 1.71449 21 2.33333 21H21C21.6188 21 22.2123 20.7542 22.6499 20.3166C23.0875 19.879 23.3333 19.2855 23.3333 18.6667V4.66667C23.3333 4.04783 23.0875 3.45434 22.6499 3.01675C22.2123 2.57917 21.6188 2.33333 21 2.33333ZM21 18.6667H2.33333V4.66667H7.05833L9.19333 2.33333H14.14L16.275 4.66667H21V18.6667ZM11.6667 5.83333C10.1196 5.83333 8.63584 6.44791 7.54188 7.54188C6.44792 8.63584 5.83333 10.1196 5.83333 11.6667C5.83333 13.2138 6.44792 14.6975 7.54188 15.7915C8.63584 16.8854 10.1196 17.5 11.6667 17.5C13.2138 17.5 14.6975 16.8854 15.7915 15.7915C16.8854 14.6975 17.5 13.2138 17.5 11.6667C17.5 10.1196 16.8854 8.63584 15.7915 7.54188C14.6975 6.44791 13.2138 5.83333 11.6667 5.83333ZM11.6667 15.1667C10.7384 15.1667 9.84817 14.7979 9.19179 14.1415C8.53542 13.4852 8.16667 12.5949 8.16667 11.6667C8.16667 10.7384 8.53542 9.84817 9.19179 9.19179C9.84817 8.53541 10.7384 8.16667 11.6667 8.16667C12.5949 8.16667 13.4852 8.53541 14.1415 9.19179C14.7979 9.84817 15.1667 10.7384 15.1667 11.6667C15.1667 12.5949 14.7979 13.4852 14.1415 14.1415C13.4852 14.7979 12.5949 15.1667 11.6667 15.1667Z" fill="#1A2A59"/>
</svg>
